<?xml version="1.0" standalone="no"?>
<!DOCTYPE svg PUBLIC "-//W3C//DTD SVG 20010904//EN"
 "http://www.w3.org/TR/2001/REC-SVG-20010904/DTD/svg10.dtd">
<svg version="1.0" xmlns="http://www.w3.org/2000/svg"
 width="700.000000pt" height="700.000000pt" viewBox="0 0 700.000000 700.000000"
 preserveAspectRatio="xMidYMid meet">
<metadata>
Created by potrace 1.14, written by Peter Selinger 2001-2017
</metadata>
<g transform="translate(0.000000,700.000000) scale(0.100000,-0.100000)"
fill="#000000" stroke="none">
<path d="M3278 6995 c-1 -1 -42 -5 -89 -9 -47 -4 -95 -8 -105 -10 -10 -2 -48
-7 -84 -12 -36 -4 -67 -8 -70 -9 -3 -1 -25 -5 -50 -9 -25 -4 -101 -21 -170
-38 -69 -16 -135 -31 -147 -34 -40 -8 -263 -84 -366 -125 -103 -41 -345 -158
-429 -207 -761 -441 -1316 -1119 -1592 -1944 -31 -94 -79 -267 -91 -329 -3
-13 -12 -58 -20 -99 -8 -41 -17 -89 -19 -105 -3 -17 -7 -46 -11 -66 -6 -40
-10 -74 -22 -199 -15 -162 -8 -591 12 -711 2 -13 6 -46 9 -74 37 -321 160
-722 326 -1060 59 -119 170 -316 197 -350 4 -6 29 -42 54 -80 203 -308 532
-643 859 -874 63 -45 120 -86 127 -91 7 -6 15 -10 17 -10 3 0 37 -20 75 -44
38 -25 133 -78 212 -118 351 -180 735 -303 1108 -354 25 -3 57 -8 71 -10 163
-25 682 -25 842 1 13 2 46 7 73 10 74 11 87 13 120 19 17 4 46 9 65 12 95 16
309 73 450 121 558 189 1087 540 1480 982 36 41 70 79 76 85 29 30 185 242
240 326 120 184 241 412 315 597 66 163 147 422 175 558 16 75 54 300 60 350
4 33 9 76 11 95 8 71 10 517 3 595 -17 172 -22 220 -25 225 -2 3 -6 30 -10 60
-3 30 -10 71 -15 90 -5 19 -12 51 -15 70 -13 77 -66 272 -106 390 -350 1041
-1163 1856 -2204 2208 -165 56 -397 113 -555 137 -25 4 -54 9 -65 11 -10 2
-49 6 -85 10 -36 3 -78 8 -95 11 -33 5 -531 13 -537 8z m421 -439 c53 -3 132
-11 176 -17 75 -10 97 -13 170 -25 512 -85 1062 -351 1470 -709 152 -134 308
-299 405 -430 25 -33 48 -62 51 -65 13 -10 129 -189 183 -282 162 -277 293
-629 351 -943 10 -49 18 -97 20 -105 30 -161 44 -480 30 -690 -6 -98 -30 -293
-40 -330 -2 -8 -7 -31 -10 -50 -3 -19 -11 -55 -16 -80 -6 -25 -12 -52 -14 -60
-9 -43 -69 -237 -99 -320 -307 -854 -1007 -1543 -1872 -1843 -95 -33 -291 -89
-359 -102 -101 -20 -141 -26 -240 -39 -162 -21 -254 -28 -410 -27 -149 0 -288
9 -400 26 -16 3 -46 7 -65 10 -563 81 -1156 362 -1575 746 -346 317 -581 646
-780 1094 -52 115 -152 438 -170 545 -3 19 -8 42 -10 50 -11 37 -31 174 -40
265 -3 33 -8 80 -10 105 -6 54 -6 367 -1 430 6 67 17 172 21 200 2 14 6 43 10
65 140 958 779 1829 1660 2264 195 97 437 189 598 227 9 2 25 6 35 8 49 12
231 48 257 51 17 3 63 9 104 15 41 6 131 13 200 16 69 4 127 7 128 8 3 2 146
-3 242 -8z"/>
<path d="M2516 4790 c-122 -49 -229 -180 -282 -345 -35 -108 -39 -137 -39
-300 0 -163 20 -256 82 -383 46 -92 143 -197 218 -232 71 -34 189 -34 260 0
73 35 172 140 217 230 66 134 83 213 83 395 0 136 -4 172 -23 240 -53 185
-142 314 -265 381 -69 37 -179 44 -251 14z"/>
<path d="M4279 4796 c-87 -31 -169 -104 -231 -207 -38 -62 -85 -188 -93 -250
-3 -19 -7 -45 -10 -59 -7 -34 -7 -184 0 -245 19 -160 90 -319 185 -416 87 -87
141 -113 245 -113 104 -1 170 30 248 114 101 109 159 244 183 425 5 45 5 206
-1 235 -3 14 -7 39 -9 55 -9 62 -57 193 -93 253 -86 142 -204 222 -324 222
-35 -1 -80 -7 -100 -14z"/>
<path d="M1944 2839 c-100 -18 -178 -111 -178 -214 0 -54 22 -104 90 -206 113
-169 221 -291 370 -419 70 -60 87 -74 149 -115 33 -22 62 -43 65 -47 13 -16
286 -150 372 -182 244 -91 468 -127 733 -120 88 2 176 6 195 9 103 15 100 14
233 45 217 51 470 166 662 301 177 125 354 303 481 485 114 163 135 225 108
316 -36 121 -186 188 -297 132 -51 -26 -74 -52 -152 -169 -209 -314 -516 -536
-876 -633 -41 -11 -94 -23 -119 -27 -25 -4 -54 -10 -65 -12 -46 -12 -354 -10
-435 2 -438 67 -815 308 -1060 677 -88 133 -117 158 -195 176 -22 4 -58 5 -81
1z"/>
</g>
</svg>
